<!-- Generated by IcoMoon.io -->
<svg version="1.1" xmlns="http://www.w3.org/2000/svg" width="1056" height="1024" viewBox="0 0 1056 1024">
<title></title>
<g id="icomoon-ignore">
</g>
<path fill="#000" d="M1012 446.016c-16.256 0-55.392 18.016-83.296 32h-63.52c-3.84-81.376-36.512-155.040-88.16-211.2l41.984-42.016c29.824-9.76 73.664-25.568 85.728-37.632 18.752-18.752 18.752-49.152 0-67.904-18.752-18.72-49.12-18.72-67.872 0-11.488 11.488-26.432 51.968-36.256 81.536l-44.896 44.864c-56.416-51.36-130.24-83.584-211.712-86.976v-59.424c14.144-28 33.984-70.208 33.984-87.264 0-26.496-21.504-48-48-48s-48 21.504-48 48c0 16.256 18.016 55.392 32 83.296v63.52c-81.376 3.84-155.072 36.48-211.232 88.16l-41.984-42.016c-9.76-29.824-25.6-73.696-37.664-85.76-18.72-18.72-49.12-18.72-67.872 0-18.752 18.752-18.752 49.152 0 67.904 11.488 11.52 51.936 26.432 81.504 36.256l44.896 44.896c-50.912 55.968-83.008 129.056-86.816 209.728h-63.52c-27.872-13.984-67.008-32-83.296-32-26.528 0-48 21.504-48 48s21.472 48 48 48c17.056 0 59.264-19.84 87.264-33.984h59.456c3.36 81.472 35.616 155.296 86.944 211.712l-44.864 44.896c-29.6 9.824-70.016 24.736-81.536 36.256-18.752 18.752-18.752 49.152 0 67.872 18.752 18.752 49.152 18.752 67.872 0 12.064-12.032 27.872-55.872 37.664-85.696l42.016-42.016c56.16 51.648 129.824 84.32 211.2 88.16v63.52c-13.984 27.872-32 67.040-32 83.296 0 26.496 21.504 48 48 48s48-21.504 48-48c0-17.056-19.84-59.264-33.984-87.264v-59.456c81.472-3.328 155.296-35.584 211.712-86.912l44.896 44.864c9.824 29.568 24.736 70.016 36.256 81.504 18.752 18.752 49.12 18.752 67.872 0 18.752-18.72 18.752-49.12 0-67.872-12.064-12.064-55.904-27.872-85.728-37.664l-41.984-41.984c52.096-56.64 84.864-131.040 88.256-213.216h59.456c28 14.176 70.176 33.984 87.264 33.984 26.496 0 48-21.504 48-48s-21.536-47.968-48.032-47.968zM326.88 313.536l113.664 113.664c-10.944 14.624-18.208 31.904-20.96 50.784h-160.768c3.68-63.008 28.672-120.16 68.064-164.448zM258.688 508h160.704c2.496 19.68 9.856 37.696 21.184 52.8l-113.696 113.664c-39.776-44.736-64.896-102.656-68.192-166.464zM513.984 765.184c-63.744-3.712-121.44-29.248-165.952-69.44l113.6-113.6c14.944 11.584 32.736 19.392 52.352 22.208v160.832zM513.984 383.616c-19.616 2.816-37.408 10.656-52.352 22.24l-113.6-113.6c44.512-40.16 102.208-65.728 165.952-69.44v160.8zM801.184 478.016h-160.8c-2.816-19.584-10.624-37.408-22.208-52.352l113.6-113.6c40.16 44.48 65.696 102.208 69.408 165.952zM710.464 290.88l-113.664 113.696c-15.136-11.328-33.12-18.688-52.8-21.184v-160.704c63.808 3.296 121.728 28.416 166.464 68.192zM544 765.28v-160.672c19.68-2.496 37.696-9.856 52.8-21.152l113.664 113.664c-44.736 39.776-102.656 64.896-166.464 68.16zM731.744 675.936l-113.6-113.6c12-15.424 19.872-33.984 22.432-54.336h160.672c-3.232 64.544-28.896 123.008-69.504 167.936z"></path>
</svg>
